<svg width="50" height="13" viewBox="0 0 50 13" fill="none" xmlns="http://www.w3.org/2000/svg">
<path d="M0.790891 9H2.47089V3.552L4.72689 9H5.99889L8.24289 3.552V9H9.92289V0.624H8.02689L5.36289 6.852L2.69889 0.624H0.790891V9ZM14.4159 6.996L12.6999 2.352H10.8159L13.4799 8.832L12.0399 12.144H13.8279L17.9439 2.352H16.1559L14.4159 6.996ZM18.4415 4.8C18.4415 7.308 20.2775 9.072 22.6895 9.072C24.5495 9.072 26.0615 8.088 26.6255 6.36H24.6935C24.2975 7.176 23.5775 7.572 22.6775 7.572C21.2135 7.572 20.1695 6.492 20.1695 4.8C20.1695 3.096 21.2135 2.028 22.6775 2.028C23.5775 2.028 24.2975 2.424 24.6935 3.228H26.6255C26.0615 1.512 24.5495 0.516 22.6895 0.516C20.2775 0.516 18.4415 2.292 18.4415 4.8ZM27.6284 5.652C27.6284 7.728 28.9724 9.108 30.6524 9.108C31.7084 9.108 32.4644 8.604 32.8604 8.028V9H34.5524V2.352H32.8604V3.3C32.4644 2.748 31.7324 2.244 30.6644 2.244C28.9724 2.244 27.6284 3.576 27.6284 5.652ZM32.8604 5.676C32.8604 6.936 32.0204 7.632 31.0964 7.632C30.1964 7.632 29.3444 6.912 29.3444 5.652C29.3444 4.392 30.1964 3.72 31.0964 3.72C32.0204 3.72 32.8604 4.416 32.8604 5.676ZM37.8732 3.324V0.12H36.1932V9H37.8732V8.052C38.2812 8.628 39.0252 9.108 40.0692 9.108C41.7732 9.108 43.1052 7.728 43.1052 5.652C43.1052 3.576 41.7732 2.244 40.0692 2.244C39.0612 2.244 38.2812 2.712 37.8732 3.324ZM41.3892 5.652C41.3892 6.912 40.5372 7.632 39.6252 7.632C38.7252 7.632 37.8732 6.936 37.8732 5.676C37.8732 4.416 38.7252 3.72 39.6252 3.72C40.5372 3.72 41.3892 4.392 41.3892 5.652ZM49.486 7.104C49.438 4.668 45.754 5.424 45.754 4.212C45.754 3.828 46.078 3.576 46.702 3.576C47.362 3.576 47.77 3.924 47.818 4.44H49.426C49.33 3.12 48.358 2.244 46.75 2.244C45.106 2.244 44.122 3.132 44.122 4.236C44.122 6.672 47.878 5.916 47.878 7.104C47.878 7.488 47.518 7.788 46.858 7.788C46.186 7.788 45.718 7.404 45.658 6.9H43.966C44.038 8.136 45.202 9.108 46.87 9.108C48.49 9.108 49.486 8.244 49.486 7.104Z" fill="#FFFDFD"/>
</svg>
